<svg xmlns="http://www.w3.org/2000/svg" xmlns:xlink="http://www.w3.org/1999/xlink">

  <symbol id="logo" viewBox="0 0 119 31">
    <title>logo</title>
    <path d="M111.556672,2.90076856 C110.755647,2.90076856 110.106288,3.55012772 110.106288,4.35115284 L110.106288,7.25192139 C110.106288,8.05294651 110.755647,8.70230567 111.556672,8.70230567 L114.457441,8.70230567 C115.258466,8.70230567 115.907825,8.05294651 115.907825,7.25192139 L115.907825,4.35115284 C115.907825,3.55012772 115.258466,2.90076856 114.457441,2.90076856 L111.556672,2.90076856 Z M111.556672,0 L114.457441,0 C116.860516,0 118.808594,1.94807748 118.808594,4.35115284 L118.808594,7.25192139 C118.808594,9.65499675 116.860516,11.6030742 114.457441,11.6030742 L111.556672,11.6030742 C109.153597,11.6030742 107.20552,9.65499675 107.20552,7.25192139 L107.20552,4.35115284 C107.20552,1.94807748 109.153597,0 111.556672,0 Z M8.976,15.872 C8.86399944,15.1039962 8.55600252,14.524002 8.052,14.132 C7.54799748,13.739998 6.91200384,13.544 6.144,13.544 C5.79199824,13.544 5.416002,13.6039994 5.016,13.724 C4.615998,13.8440006 4.24800168,14.0679984 3.912,14.396 C3.57599832,14.7240016 3.29600112,15.1799971 3.072,15.764 C2.84799888,16.3480029 2.736,17.1119953 2.736,18.056 C2.736,18.5680026 2.7959994,19.0799974 2.916,19.592 C3.0360006,20.1040026 3.22799868,20.559998 3.492,20.96 C3.75600132,21.360002 4.09599792,21.6839988 4.512,21.932 C4.92800208,22.1800012 5.43199704,22.304 6.024,22.304 C6.824004,22.304 7.4839974,22.0560025 8.004,21.56 C8.5240026,21.0639975 8.84799936,20.3680045 8.976,19.472 L11.712,19.472 C11.4559987,21.0880081 10.8440048,22.3239957 9.876,23.18 C8.90799516,24.0360043 7.624008,24.464 6.024,24.464 C5.04799512,24.464 4.18800372,24.3000016 3.444,23.972 C2.69999628,23.6439984 2.07200256,23.1960028 1.56,22.628 C1.04799744,22.0599972 0.66000132,21.3840039 0.396,20.6 C0.13199868,19.8159961 0,18.9680046 0,18.056 C0,17.1279954 0.12799872,16.2560041 0.384,15.44 C0.64000128,14.6239959 1.02399744,13.916003 1.536,13.316 C2.04800256,12.715997 2.6839962,12.2440017 3.444,11.9 C4.2040038,11.5559983 5.09599488,11.384 6.12,11.384 C6.8400036,11.384 7.52399676,11.4759991 8.172,11.66 C8.82000324,11.8440009 9.39599748,12.1199982 9.9,12.488 C10.4040025,12.8560018 10.8159984,13.3199972 11.136,13.88 C11.4560016,14.4400028 11.6479997,15.1039962 11.712,15.872 L8.976,15.872 Z M19.632,24.464 C18.639995,24.464 17.7560039,24.3000016 16.98,23.972 C16.2039961,23.6439984 15.5480027,23.1920029 15.012,22.616 C14.4759973,22.0399971 14.0680014,21.352004 13.788,20.552 C13.5079986,19.751996 13.368,18.8720048 13.368,17.912 C13.368,16.9679953 13.5079986,16.096004 13.788,15.296 C14.0680014,14.495996 14.4759973,13.8080029 15.012,13.232 C15.5480027,12.6559971 16.2039961,12.2040016 16.98,11.876 C17.7560039,11.5479984 18.639995,11.384 19.632,11.384 C20.624005,11.384 21.5079961,11.5479984 22.284,11.876 C23.0600039,12.2040016 23.7159973,12.6559971 24.252,13.232 C24.7880027,13.8080029 25.1959986,14.495996 25.476,15.296 C25.7560014,16.096004 25.896,16.9679953 25.896,17.912 C25.896,18.8720048 25.7560014,19.751996 25.476,20.552 C25.1959986,21.352004 24.7880027,22.0399971 24.252,22.616 C23.7159973,23.1920029 23.0600039,23.6439984 22.284,23.972 C21.5079961,24.3000016 20.624005,24.464 19.632,24.464 Z M19.632,22.304 C20.240003,22.304 20.7679978,22.1760013 21.216,21.92 C21.6640022,21.6639987 22.0319986,21.3280021 22.32,20.912 C22.6080014,20.4959979 22.8199993,20.0280026 22.956,19.508 C23.0920007,18.9879974 23.16,18.4560027 23.16,17.912 C23.16,17.3839974 23.0920007,16.8560026 22.956,16.328 C22.8199993,15.7999974 22.6080014,15.332002 22.32,14.924 C22.0319986,14.515998 21.6640022,14.1840013 21.216,13.928 C20.7679978,13.6719987 20.240003,13.544 19.632,13.544 C19.023997,13.544 18.4960022,13.6719987 18.048,13.928 C17.5999978,14.1840013 17.2320014,14.515998 16.944,14.924 C16.6559986,15.332002 16.4440007,15.7999974 16.308,16.328 C16.1719993,16.8560026 16.104,17.3839974 16.104,17.912 C16.104,18.4560027 16.1719993,18.9879974 16.308,19.508 C16.4440007,20.0280026 16.6559986,20.4959979 16.944,20.912 C17.2320014,21.3280021 17.5999978,21.6639987 18.048,21.92 C18.4960022,22.1760013 19.023997,22.304 19.632,22.304 Z M28.176,11.72 L30.768,11.72 L30.768,13.544 L30.816,13.592 C31.2320021,12.9039966 31.7759966,12.364002 32.448,11.972 C33.1200034,11.579998 33.8639959,11.384 34.68,11.384 C36.0400068,11.384 37.1119961,11.7359965 37.896,12.44 C38.6800039,13.1440035 39.072,14.199993 39.072,15.608 L39.072,24.128 L36.336,24.128 L36.336,16.328 C36.3039998,15.3519951 36.0960019,14.6440022 35.712,14.204 C35.3279981,13.7639978 34.7280041,13.544 33.912,13.544 C33.4479977,13.544 33.0320018,13.6279992 32.664,13.796 C32.2959982,13.9640008 31.9840013,14.1959985 31.728,14.492 C31.4719987,14.7880015 31.2720007,15.135998 31.128,15.536 C30.9839993,15.936002 30.912,16.3599978 30.912,16.808 L30.912,24.128 L28.176,24.128 L28.176,11.72 Z M50.328,15.872 C50.2159994,15.1039962 49.9080025,14.524002 49.404,14.132 C48.8999975,13.739998 48.2640038,13.544 47.496,13.544 C47.1439982,13.544 46.768002,13.6039994 46.368,13.724 C45.967998,13.8440006 45.6000017,14.0679984 45.264,14.396 C44.9279983,14.7240016 44.6480011,15.1799971 44.424,15.764 C44.1999989,16.3480029 44.088,17.1119953 44.088,18.056 C44.088,18.5680026 44.1479994,19.0799974 44.268,19.592 C44.3880006,20.1040026 44.5799987,20.559998 44.844,20.96 C45.1080013,21.360002 45.4479979,21.6839988 45.864,21.932 C46.2800021,22.1800012 46.783997,22.304 47.376,22.304 C48.176004,22.304 48.8359974,22.0560025 49.356,21.56 C49.8760026,21.0639975 50.1999994,20.3680045 50.328,19.472 L53.064,19.472 C52.8079987,21.0880081 52.1960048,22.3239957 51.228,23.18 C50.2599952,24.0360043 48.976008,24.464 47.376,24.464 C46.3999951,24.464 45.5400037,24.3000016 44.796,23.972 C44.0519963,23.6439984 43.4240026,23.1960028 42.912,22.628 C42.3999974,22.0599972 42.0120013,21.3840039 41.748,20.6 C41.4839987,19.8159961 41.352,18.9680046 41.352,18.056 C41.352,17.1279954 41.4799987,16.2560041 41.736,15.44 C41.9920013,14.6239959 42.3759974,13.916003 42.888,13.316 C43.4000026,12.715997 44.0359962,12.2440017 44.796,11.9 C45.5560038,11.5559983 46.4479949,11.384 47.472,11.384 C48.1920036,11.384 48.8759968,11.4759991 49.524,11.66 C50.1720032,11.8440009 50.7479975,12.1199982 51.252,12.488 C51.7560025,12.8560018 52.1679984,13.3199972 52.488,13.88 C52.8080016,14.4400028 52.9999997,15.1039962 53.064,15.872 L50.328,15.872 Z M63.816,16.832 C63.7839998,16.3999978 63.6920008,15.984002 63.54,15.584 C63.3879992,15.183998 63.1800013,14.8360015 62.916,14.54 C62.6519987,14.2439985 62.3320019,14.0040009 61.956,13.82 C61.5799981,13.6359991 61.1600023,13.544 60.696,13.544 C60.2159976,13.544 59.780002,13.6279992 59.388,13.796 C58.995998,13.9640008 58.6600014,14.1959985 58.38,14.492 C58.0999986,14.7880015 57.8760008,15.135998 57.708,15.536 C57.5399992,15.936002 57.4480001,16.3679977 57.432,16.832 L63.816,16.832 Z M57.432,18.632 C57.432,19.1120024 57.4999993,19.5759978 57.636,20.024 C57.7720007,20.4720022 57.9759986,20.8639983 58.248,21.2 C58.5200014,21.5360017 58.8639979,21.803999 59.28,22.004 C59.6960021,22.204001 60.1919971,22.304 60.768,22.304 C61.568004,22.304 62.2119976,22.1320017 62.7,21.788 C63.1880024,21.4439983 63.5519988,20.9280034 63.792,20.24 L66.384,20.24 C66.2399993,20.9120034 65.9920018,21.5119974 65.64,22.04 C65.2879982,22.5680026 64.8640025,23.0119982 64.368,23.372 C63.8719975,23.7320018 63.3160031,24.0039991 62.7,24.188 C62.0839969,24.3720009 61.4400034,24.464 60.768,24.464 C59.7919951,24.464 58.9280038,24.3040016 58.176,23.984 C57.4239962,23.6639984 56.7880026,23.2160029 56.268,22.64 C55.7479974,22.0639971 55.3560013,21.376004 55.092,20.576 C54.8279987,19.775996 54.696,18.8960048 54.696,17.936 C54.696,17.0559956 54.8359986,16.220004 55.116,15.428 C55.3960014,14.635996 55.7959974,13.940003 56.316,13.34 C56.8360026,12.739997 57.4639963,12.2640018 58.2,11.912 C58.9360037,11.5599982 59.7679954,11.384 60.696,11.384 C61.6720049,11.384 62.5479961,11.587998 63.324,11.996 C64.1000039,12.404002 64.7439974,12.9439966 65.256,13.616 C65.7680026,14.2880034 66.1399988,15.0599956 66.372,15.932 C66.6040012,16.8040044 66.6640006,17.7039954 66.552,18.632 L57.432,18.632 Z M68.712,11.72 L71.304,11.72 L71.304,13.4 L71.352,13.4 C71.7360019,12.6799964 72.2719966,12.1640016 72.96,11.852 C73.6480034,11.5399984 74.391996,11.384 75.192,11.384 C76.1680049,11.384 77.0199964,11.5559983 77.748,11.9 C78.4760036,12.2440017 79.0799976,12.715997 79.56,13.316 C80.0400024,13.916003 80.3999988,14.615996 80.64,15.416 C80.8800012,16.216004 81,17.0719954 81,17.984 C81,18.8160042 80.8920011,19.6239961 80.676,20.408 C80.4599989,21.1920039 80.1320022,21.883997 79.692,22.484 C79.2519978,23.084003 78.6960034,23.5639982 78.024,23.924 C77.3519966,24.2840018 76.5600046,24.464 75.648,24.464 C75.247998,24.464 74.848002,24.4280004 74.448,24.356 C74.047998,24.2839996 73.6640018,24.1680008 73.296,24.008 C72.9279982,23.8479992 72.5880016,23.6440012 72.276,23.396 C71.9639984,23.1479988 71.704001,22.8560017 71.496,22.52 L71.448,22.52 L71.448,28.712 L68.712,28.712 L68.712,11.72 Z M78.264,17.936 C78.264,17.3759972 78.1920007,16.8320026 78.048,16.304 C77.9039993,15.7759974 77.6880014,15.308002 77.4,14.9 C77.1119986,14.491998 76.7520022,14.1640012 76.32,13.916 C75.8879978,13.6679988 75.3920028,13.544 74.832,13.544 C73.6799942,13.544 72.8120029,13.943996 72.228,14.744 C71.6439971,15.544004 71.352,16.6079934 71.352,17.936 C71.352,18.5600031 71.4279992,19.1399973 71.58,19.676 C71.7320008,20.2120027 71.9599985,20.6719981 72.264,21.056 C72.5680015,21.4400019 72.9319979,21.7439989 73.356,21.968 C73.7800021,22.1920011 74.2719972,22.304 74.832,22.304 C75.4560031,22.304 75.9839978,22.1760013 76.416,21.92 C76.8480022,21.6639987 77.2039986,21.332002 77.484,20.924 C77.7640014,20.515998 77.9639994,20.0520026 78.084,19.532 C78.2040006,19.0119974 78.264,18.4800027 78.264,17.936 Z M82.056,11.72 L84.12,11.72 L84.12,8 L86.856,8 L86.856,11.72 L89.328,11.72 L89.328,13.76 L86.856,13.76 L86.856,20.384 C86.856,20.6720014 86.8679999,20.919999 86.892,21.128 C86.9160001,21.336001 86.9719996,21.5119993 87.06,21.656 C87.1480004,21.8000007 87.2799991,21.9079996 87.456,21.98 C87.6320009,22.0520004 87.8719985,22.088 88.176,22.088 C88.368001,22.088 88.559999,22.084 88.752,22.076 C88.944001,22.068 89.135999,22.0400002 89.328,21.992 L89.328,24.104 C89.0239985,24.1360002 88.7280014,24.1679998 88.44,24.2 C88.1519986,24.2320002 87.8560015,24.248 87.552,24.248 C86.8319964,24.248 86.2520022,24.1800007 85.812,24.044 C85.3719978,23.9079993 85.0280012,23.7080013 84.78,23.444 C84.5319988,23.1799987 84.3640004,22.848002 84.276,22.448 C84.1879996,22.047998 84.1360001,21.5920026 84.12,21.08 L84.12,13.76 L82.056,13.76 L82.056,11.72 Z M101.688,21.368 C101.688,21.7040017 101.732,21.9439993 101.82,22.088 C101.908,22.2320007 102.079999,22.304 102.336,22.304 L102.624,22.304 C102.736001,22.304 102.863999,22.2880002 103.008,22.256 L103.008,24.152 C102.912,24.1840002 102.788001,24.2199998 102.636,24.26 C102.483999,24.3000002 102.328001,24.3359998 102.168,24.368 C102.007999,24.4000002 101.848001,24.4239999 101.688,24.44 C101.527999,24.4560001 101.392001,24.464 101.28,24.464 C100.719997,24.464 100.256002,24.3520011 99.888,24.128 C99.5199982,23.9039989 99.2800006,23.5120028 99.168,22.952 C98.6239973,23.4800026 97.956004,23.8639988 97.164,24.104 C96.371996,24.3440012 95.6080037,24.464 94.872,24.464 C94.3119972,24.464 93.7760026,24.3880008 93.264,24.236 C92.7519974,24.0839992 92.300002,23.8600015 91.908,23.564 C91.515998,23.2679985 91.2040012,22.8920023 90.972,22.436 C90.7399988,21.9799977 90.624,21.448003 90.624,20.84 C90.624,20.0719962 90.7639986,19.4480024 91.044,18.968 C91.3240014,18.4879976 91.6919977,18.1120014 92.148,17.84 C92.6040023,17.5679986 93.1159972,17.3720006 93.684,17.252 C94.2520028,17.1319994 94.8239971,17.0400003 95.4,16.976 C95.8960025,16.8799995 96.3679978,16.8120002 96.816,16.772 C97.2640022,16.7319998 97.6599983,16.6640005 98.004,16.568 C98.3480017,16.4719995 98.619999,16.324001 98.82,16.124 C99.020001,15.923999 99.12,15.624002 99.12,15.224 C99.12,14.8719982 99.0360008,14.5840011 98.868,14.36 C98.6999992,14.1359989 98.4920012,13.9640006 98.244,13.844 C97.9959988,13.7239994 97.7200015,13.6440002 97.416,13.604 C97.1119985,13.5639998 96.8240014,13.544 96.552,13.544 C95.7839962,13.544 95.1520025,13.7039984 94.656,14.024 C94.1599975,14.3440016 93.8800003,14.8399966 93.816,15.512 L91.08,15.512 C91.1280002,14.711996 91.3199983,14.0480026 91.656,13.52 C91.9920017,12.9919974 92.4199974,12.5680016 92.94,12.248 C93.4600026,11.9279984 94.0479967,11.7040006 94.704,11.576 C95.3600033,11.4479994 96.0319966,11.384 96.72,11.384 C97.328003,11.384 97.927997,11.4479994 98.52,11.576 C99.112003,11.7040006 99.6439976,11.9119986 100.116,12.2 C100.588002,12.4880014 100.967999,12.8599977 101.256,13.316 C101.544001,13.7720023 101.688,14.3279967 101.688,14.984 L101.688,21.368 Z M98.952,17.912 C98.5359979,18.1840014 98.024003,18.3479997 97.416,18.404 C96.807997,18.4600003 96.200003,18.5439994 95.592,18.656 C95.3039986,18.7040002 95.0240014,18.7719996 94.752,18.86 C94.4799986,18.9480004 94.240001,19.0679992 94.032,19.22 C93.823999,19.3720008 93.6600006,19.5719988 93.54,19.82 C93.4199994,20.0680012 93.36,20.3679982 93.36,20.72 C93.36,21.0240015 93.4479991,21.279999 93.624,21.488 C93.8000009,21.696001 94.0119988,21.8599994 94.26,21.98 C94.5080012,22.1000006 94.7799985,22.1839998 95.076,22.232 C95.3720015,22.2800002 95.6399988,22.304 95.88,22.304 C96.1840015,22.304 96.5119982,22.2640004 96.864,22.184 C97.2160018,22.1039996 97.5479984,21.968001 97.86,21.776 C98.1720016,21.583999 98.431999,21.3400015 98.64,21.044 C98.848001,20.7479985 98.952,20.3840022 98.952,19.952 L98.952,17.912 Z"/>
  </symbol>

  <symbol id="logo-alt" viewBox="0 0 47 47">
    <title>logo alt</title>
    <path d="M15,0 L31.7929688,0 L31.7929687,0 C40.07724,-1.52179594e-15 46.7929688,6.71572875 46.7929688,15 L46.7929688,31.7929688 C46.7929688,40.07724 40.07724,46.7929688 31.7929688,46.7929688 L15,46.7929688 L15,46.7929688 C6.71572875,46.7929688 1.01453063e-15,40.07724 0,31.7929688 L0,15 L0,15 C-1.01453063e-15,6.71572875 6.71572875,1.52179594e-15 15,0 L15,0 Z M17.2447115,14 C14.9366566,14 13.0093407,14.7970998 11.462706,16.3913232 C9.8208938,18.0807242 9,20.3292594 9,23.1369963 C9,25.8019669 9.8208938,28.026708 11.462706,29.8112865 C13.0093407,31.4768931 14.9247596,32.309684 17.2090201,32.309684 C19.517075,32.309684 21.3135237,31.6672453 22.5984203,30.3823488 C23.8595224,29.1212467 24.490064,27.5389441 24.490064,25.6353937 L20.2427884,25.6353937 C20.2427884,26.5157858 19.9988997,27.2117609 19.5111149,27.7233401 C19.0233301,28.2349193 18.2381273,28.490705 17.155483,28.490705 C16.0728387,28.490705 15.1508203,28.0445671 14.3894002,27.1522779 C13.62798,26.2599886 13.2472756,24.9334718 13.2472756,23.1726877 C13.2472756,21.4119035 13.651774,20.0318502 14.4607829,19.0324862 C14.8176986,18.6041874 15.234094,18.2889166 15.7099816,18.0866644 C16.1858692,17.8844121 16.7569258,17.7832875 17.4231684,17.7832875 C18.0894111,17.7832875 18.6783132,18.0331248 19.1898923,18.5328068 C19.7014715,19.0324887 20.0524334,19.6630303 20.2427884,20.4244505 L24.490064,20.3173763 C24.2759146,18.5803866 23.5739909,17.1408482 22.3842719,15.9987179 C21.7894124,15.4038584 21.0577462,14.9220295 20.1892513,14.5532166 C19.3207564,14.1844037 18.339253,14 17.2447115,14 Z M31.5977022,16.2796691 L33.8773713,16.2796691 C34.5068845,16.2796691 35.0172059,16.7899905 35.0172059,17.4195037 L35.0172059,19.6991728 C35.0172059,20.3286861 34.5068845,20.8390074 33.8773713,20.8390074 L31.5977022,20.8390074 C30.9681889,20.8390074 30.4578676,20.3286861 30.4578676,19.6991728 L30.4578676,17.4195037 C30.4578676,16.7899905 30.9681889,16.2796691 31.5977022,16.2796691 Z M31.5977022,14 C29.7091624,14 28.1781985,15.530964 28.1781985,17.4195037 L28.1781985,19.6991728 C28.1781985,21.5877126 29.7091624,23.1186765 31.5977022,23.1186765 L33.8773713,23.1186765 C35.765911,23.1186765 37.296875,21.5877126 37.296875,19.6991728 L37.296875,17.4195037 C37.296875,15.530964 35.765911,14 33.8773713,14 L31.5977022,14 Z"/>
  </symbol>
</svg>
